<?xml version="1.0" encoding="utf-8"?>
<!-- Generator: Adobe Illustrator 15.0.2, SVG Export Plug-In . SVG Version: 6.00 Build 0)  -->
<!DOCTYPE svg PUBLIC "-//W3C//DTD SVG 1.1//EN" "http://www.w3.org/Graphics/SVG/1.1/DTD/svg11.dtd">
<svg version="1.1" id="Layer_1" xmlns="http://www.w3.org/2000/svg" xmlns:xlink="http://www.w3.org/1999/xlink" x="0px" y="0px"
	 width="77.039px" height="100px" viewBox="0 0 77.039 100" enable-background="new 0 0 77.039 100" xml:space="preserve">
<path d="M9.771,75.262C15.366,90.62,22.643,99.996,38.988,100c16.346-0.004,28.566-13.246,28.572-26.529V61.225l8.867-26.979
	c1.486-4.086,0.12-7.015-2.527-7.978c-2.648-0.964-5.576,0.402-6.539,3.049L58.375,53.57h-2.041l7.516-40.825
	c0.488-2.776-1.363-5.422-4.139-5.911c-2.775-0.489-5.421,1.364-5.91,4.139l-7.67,39.537H44.09V5.102C44.09,2.286,41.807,0,38.988,0
	c-2.817,0-5.102,2.286-5.102,5.102V50.51h-2.041l-7.662-39.449c-0.49-2.775-3.137-4.628-5.912-4.138
	c-2.774,0.489-4.627,3.135-4.137,5.91l7.506,53.493H19.6l-9.487-19.964c-0.964-2.648-3.892-4.013-6.539-3.049
	s-4.537,2.453-3.05,6.539L9.771,75.262z"/>
</svg>
